<svg preserveAspectRatio="none" overflow="visible" style="display: block;" width="35.6737" height="35.6737" viewBox="0 0 35.6737 35.6737" fill="none" xmlns="http://www.w3.org/2000/svg">
<g id="Search" clip-path="url(#clip0_0_440)">
<path id="Icon" d="M16.1647 2.23112C23.8604 2.23112 30.099 8.46913 30.0993 16.1647C30.0993 19.5302 28.908 22.6148 26.9225 25.0231L26.278 25.8053L33.9167 33.444L33.444 33.9167L25.8053 26.278L25.0231 26.9225C22.6148 28.908 19.5302 30.0993 16.1647 30.0993C8.46913 30.099 2.23112 23.8604 2.23112 16.1647C2.23137 8.46928 8.46928 2.23137 16.1647 2.23112ZM16.1647 2.89909C8.83869 2.89934 2.89934 8.83869 2.89909 16.1647C2.89909 23.491 8.83854 29.4301 16.1647 29.4303C23.4911 29.4303 29.4303 23.4911 29.4303 16.1647C29.4301 8.83854 23.491 2.89909 16.1647 2.89909Z" fill="black" stroke="black" stroke-width="2.2296"/>
</g>
<defs>
<clipPath id="clip0_0_440">
<rect width="35.6737" height="35.6737" fill="white"/>
</clipPath>
</defs>
</svg>
