<svg preserveAspectRatio="none" overflow="visible" style="display: block;" width="46.7818" height="46.7818" viewBox="0 0 46.7818 46.7818" fill="none" xmlns="http://www.w3.org/2000/svg">
<g id="&#208;&#158;&#208;&#177;&#209;&#128;&#208;&#176;&#208;&#183;&#208;&#190;&#208;&#178;&#208;&#176;&#208;&#189;&#208;&#184;&#208;&#181;" clip-path="url(#clip0_0_356)">
<g id="edit">
<path id="Vector" d="M3.40974 18.407L2.92243 30.1024H4.87167H6.82092L6.3668 19.2341L4.87167 18.9427L3.40974 18.407Z" fill="#121212"/>
<path id="Subtract" d="M37.0049 35.2778C37.0238 35.3952 37.0351 35.5139 37.0352 35.6332C37.0352 38.6436 30.9262 41.0843 23.3906 41.0844C15.8549 41.0844 9.74612 38.6436 9.74612 35.6332C9.74614 35.5113 9.75662 35.3899 9.77639 35.2699L10.7696 23.1293L14.1846 23.9828L13.6123 24.2465L12.6914 35.4887C12.7221 35.5247 12.7653 35.5718 12.8262 35.6293C13.1585 35.9432 13.7962 36.361 14.8272 36.7729C16.8727 37.5901 19.8993 38.1606 23.3906 38.1606C26.8819 38.1605 29.9086 37.5901 31.9541 36.7729C32.9848 36.3611 33.6228 35.9431 33.9551 35.6293C34.0149 35.5728 34.0574 35.5254 34.0879 35.4897L33.168 24.2465L32.5938 23.9828L36.0108 23.1293L37.0049 35.2778Z" fill="#121212"/>
<path id="icon" d="M22.0427 8.16603C22.8169 8.07553 23.5991 8.07409 24.3737 8.16115C25.691 8.30924 26.9817 8.809 30.0544 10.0303L36.5935 12.6299C39.2867 13.7004 41.1992 14.4625 42.5241 15.1514C43.9034 15.8685 44.2611 16.3224 44.3562 16.5762C44.5618 17.1264 44.5618 17.733 44.3562 18.2832C44.2612 18.537 43.9037 18.9907 42.5241 19.708C41.1992 20.3969 39.2869 21.1599 36.5935 22.2305L30.0544 24.8291C26.9817 26.0504 25.691 26.5502 24.3737 26.6983C23.5991 26.7853 22.8169 26.7839 22.0427 26.6934C20.7262 26.5395 19.4388 26.0335 16.3718 24.7988L16.363 24.7959L9.96846 22.2217C7.30885 21.151 5.42137 20.3888 4.11397 19.7012C2.75512 18.9864 2.4023 18.5349 2.30733 18.2803C2.10318 17.732 2.10324 17.1284 2.30733 16.5801C2.4021 16.3255 2.75437 15.8734 4.11397 15.1582C5.42139 14.4706 7.3088 13.7084 9.96846 12.6377L16.3718 10.0606C19.4387 8.82591 20.7262 8.31992 22.0427 8.16603Z" stroke="#121212" stroke-width="2.92386"/>
</g>
</g>
<defs>
<clipPath id="clip0_0_356">
<rect width="46.7818" height="46.7818" fill="white"/>
</clipPath>
</defs>
</svg>
